<?xml version="1.0" encoding="utf-8"?>
<!-- Generator: Adobe Illustrator 24.0.2, SVG Export Plug-In . SVG Version: 6.00 Build 0)  -->
<svg version="1.1" id="Layer_1" xmlns="http://www.w3.org/2000/svg" xmlns:xlink="http://www.w3.org/1999/xlink" x="0px" y="0px"
	 viewBox="0 0 21 21" style="enable-background:new 0 0 21 21;" xml:space="preserve">
<style type="text/css">
	.st0{fill:#FFFFFF;stroke:#434A54;stroke-linecap:round;stroke-linejoin:round;stroke-miterlimit:1;}
</style>
<g id="icon">
	<path class="st0" d="M14.8,6.7c-0.7-0.5-2.3-1.3-4.4-1.3C8.4,5.4,6.9,6,6,6.7 M13.5,15.7l0.7,1.2c0,0,3.2-0.4,5.3-2.7
		C19.1,8.7,17,5.9,17,5.9s-1.9-1.9-4.1-2l-0.7,1.7 M3.9,13.5c1.3,0.9,3.3,1.9,6.5,1.9s5.2-1,6.5-1.9 M8.8,5.5L8,3.8
		c-2.3,0.2-4.1,2-4.1,2s-2.1,2.8-2.4,8.4C3.6,16.6,6.8,17,6.8,17l0.7-1.2 M7.6,12.3c-0.9,0-1.6-0.7-1.6-1.5s0.7-1.5,1.6-1.5
		s1.6,0.7,1.6,1.5S8.4,12.3,7.6,12.3z M13.4,12.3c-0.9,0-1.6-0.7-1.6-1.5s0.7-1.5,1.6-1.5S15,10,15,10.8S14.3,12.3,13.4,12.3z"/>
</g>
</svg>
