<svg id="Capa_1" data-name="Capa 1" xmlns="http://www.w3.org/2000/svg" viewBox="0 0 120.78 117.79"><defs><style>.cls-1,.cls-2{fill:#fff;}.cls-1{fill-rule:evenodd;}</style></defs><title>github</title><path class="cls-1" d="M7199.5,7147.11a60.39,60.39,0,0,0-19.09,117.69c3,.56,4.13-1.31,4.13-2.91,0-1.43-.06-6.19-.09-11.24-16.8,3.66-20.34-7.12-20.34-7.12-2.75-7-6.71-8.84-6.71-8.84-5.48-3.75.42-3.67.42-3.67,6.06.43,9.25,6.22,9.25,6.22,5.39,9.23,14.13,6.57,17.58,5,.54-3.9,2.1-6.56,3.83-8.07-13.41-1.53-27.51-6.71-27.51-29.85a23.35,23.35,0,0,1,6.22-16.2c-.63-1.53-2.69-7.67.58-16,0,0,5.08-1.62,16.61,6.19a57.36,57.36,0,0,1,30.25,0c11.52-7.81,16.59-6.19,16.59-6.19,3.28,8.32,1.22,14.46.59,16a23.3,23.3,0,0,1,6.22,16.2c0,23.2-14.13,28.3-27.58,29.8,2.17,1.87,4.1,5.55,4.1,11.18,0,8.08-.07,14.59-.07,16.57,0,1.61,1.08,3.5,4.14,2.9a60.39,60.39,0,0,0-19.12-117.68Z" transform="translate(-7139.11 -7147.11)"/><path class="cls-2" d="M7162,7233.81c-.13.3-.6.39-1,.19s-.68-.61-.54-.91.6-.39,1-.19.69.61.53.91Zm-.74-.55" transform="translate(-7139.11 -7147.11)"/><path class="cls-2" d="M7164.43,7236.54c-.29.27-.85.14-1.23-.28a.92.92,0,0,1-.18-1.25c.3-.27.84-.14,1.24.28s.47,1,.17,1.25Zm-.58-.62" transform="translate(-7139.11 -7147.11)"/><path class="cls-2" d="M7166.81,7240c-.37.26-1,0-1.35-.52s-.37-1.18,0-1.44,1,0,1.35.51.37,1.19,0,1.45Zm0,0" transform="translate(-7139.11 -7147.11)"/><path class="cls-2" d="M7170.07,7243.38c-.33.37-1,.27-1.55-.23s-.67-1.18-.34-1.54,1-.27,1.56.23.69,1.18.33,1.54Zm0,0" transform="translate(-7139.11 -7147.11)"/><path class="cls-2" d="M7174.57,7245.33c-.14.47-.82.69-1.51.49s-1.13-.76-1-1.24.83-.7,1.52-.49,1.12.76,1,1.24Zm0,0" transform="translate(-7139.11 -7147.11)"/><path class="cls-2" d="M7179.52,7245.69c0,.5-.57.91-1.29.92s-1.3-.38-1.31-.87.57-.92,1.29-.93,1.31.39,1.31.88Zm0,0" transform="translate(-7139.11 -7147.11)"/><path class="cls-2" d="M7184.11,7244.91c.09.49-.41,1-1.12,1.12s-1.35-.17-1.44-.66.42-1,1.12-1.12,1.35.17,1.44.66Zm0,0" transform="translate(-7139.11 -7147.11)"/></svg>